# xmcd
#
# Track frame offsets:
#	150
#	12980
#	26375
#
# Disc length: 537 seconds
#
# Revision: 1
# Processed by: cddbd v1.5PL3 Copyright (c) Steve Scherf et al.
# Submitted via: CDex 1.50Beta5
#
DISCID=16021703
DTITLE=Smaller - Is
DYEAR=1900
DGENRE=Alternative and Punk -> General Alternative
TTITLE0=Is
TTITLE1=All The Same To Me
TTITLE2=The Pane
EXTD=
EXTT0=
EXTT1=
EXTT2=
PLAYORDER=
